#!OML:ASF E:\acrobat2\Project_11_07_03\Capture day 1\Session 1\Acrobat.ASF
:FULLY-SPECIFIED
:DEGREES
668
root 12.2314 17.8425 22.3888 2.19201 3.3553 -6.07248
lowerback -4.7103 2.16833 8.4128
upperback 1.61972 2.30552 1.07112
thorax 4.63698 1.36634 -3.39021
lowerneck 5.17635 -3.77789 -1.34772
upperneck 12.7131 -4.81859 -2.55342
head 3.15291 -2.51099 -0.651138
rclavicle 7.90106e-015 4.70871e-015
rhumerus -27.5206 4.06341 -73.339
rradius 48.5384
rwrist -1.12534
rhand -3.19824 -43.7049
rfingers 7.12502
rthumb 22.5237 -72.4112
lclavicle 7.90106e-015 4.70871e-015
lhumerus -39.2097 -0.682389 82.7695
lradius 14.9725
lwrist 5.74752
lhand -10.3346 -6.58136
lfingers 7.12502
lthumb 15.6614 22.8048
rfemur 10.6183 3.59399 29.9358
rtibia 5.24014
rfoot -21.308 -9.02552
rtoes 0.229223
lfemur -21.6952 4.93473 -7.53806
ltibia 5.27607
lfoot -16.939 5.40458
ltoes 23.8262
669
root 12.2517 17.8169 22.5483 2.30328 2.99831 -6.18041
lowerback -4.85242 2.23772 8.41712
upperback 1.58756 2.3852 1.05648
thorax 4.69465 1.40706 -3.39572
lowerneck 5.21328 -3.76117 -1.24054
upperneck 12.5791 -4.76292 -2.93498
head 3.08753 -2.48869 -0.78738
rclavicle 1.30887e-014 1.81391e-015
rhumerus -27.3731 3.9826 -73.1815
rradius 48.7851
rwrist -1.26981
rhand -3.3023 -43.6981
rfingers 7.12502
rthumb 22.4238 -72.4165
lclavicle 1.30887e-014 1.81391e-015
lhumerus -39.7627 -0.766481 82.8781
lradius 14.8805
lwrist 5.764
lhand -9.89463 -6.76922
lfingers 7.12502
lthumb 16.0851 22.5832
rfemur 10.9115 3.57427 29.9409
rtibia 5.54889
rfoot -21.4894 -8.58782
rtoes -0.61346
lfemur -21.2014 3.62353 -7.05059
ltibia 3.09406
lfoot -17.7027 5.61015
ltoes 25.0834
670
root 12.2721 17.7919 22.709 2.39967 2.67129 -6.27543
lowerback -4.99478 2.27549 8.38252
upperback 1.56773 2.42483 1.03889
thorax 4.7587 1.42749 -3.3862
lowerneck 5.20983 -3.73089 -1.1018
upperneck 12.449 -4.68831 -3.32159
head 3.03082 -2.45587 -0.931415
rclavicle 1.83224e-014 9.93923e-017
rhumerus -27.2156 3.8999 -73.0706
rradius 48.9704
rwrist -1.39408
rhand -3.39763 -43.6954
rfingers 7.12502
rthumb 22.3323 -72.4248
lclavicle 1.83224e-014 9.93923e-017
lhumerus -40.2952 -0.895635 83.0251
lradius 14.8179
lwrist 5.81013
lhand -9.41858 -6.87342
lfingers 7.12502
lthumb 16.5435 22.4414
rfemur 11.1973 3.54019 29.9257
rtibia 5.92828
rfoot -21.6815 -8.12916
rtoes -1.42291
lfemur -20.7856 2.15379 -6.54443
ltibia 1.30655
lfoot -18.4261 5.73881
ltoes 26.0781
671
root 12.2932 17.768 22.8703 2.48149 2.3691 -6.3613
lowerback -5.1242 2.28542 8.32151
upperback 1.5536 2.43046 1.01943
thorax 4.81594 1.4303 -3.36771
lowerneck 5.18285 -3.68334 -0.957422
upperneck 12.3204 -4.59212 -3.69643
head 2.98025 -2.41183 -1.07321
rclavicle 2.80473e-015 -1.72943e-014
rhumerus -27.0593 3.80865 -73.0024
rradius 49.0903
rwrist -1.48387
rhand -3.49268 -43.655
rfingers 7.12502
rthumb 22.2411 -72.3953
lclavicle 2.80473e-015 -1.72943e-014
lhumerus -40.8013 -1.02664 83.1871
lradius 14.7682
lwrist 5.8169
lhand -8.89597 -6.88312
lfingers 7.12502
lthumb 17.0466 22.389
rfemur 11.4726 3.52356 29.8964
rtibia 6.36828
rfoot -21.8961 -7.62112
rtoes -1.8425
lfemur -20.51 0.865145 -6.12094
ltibia 0.071535
lfoot -18.9001 5.68389
ltoes 26.5954
672
root 12.3148 17.7454 23.0318 2.54092 2.10307 -6.4452
lowerback -5.23256 2.27485 8.25335
upperback 1.54622 2.41139 0.997384
thorax 4.86505 1.42065 -3.35117
lowerneck 5.12918 -3.62496 -0.830754
upperneck 12.2036 -4.48503 -4.03567
head 2.94088 -2.3624 -1.20168
rclavicle -1.21756e-014 3.27001e-014
rhumerus -26.9068 3.69563 -72.9647
rradius 49.135
rwrist -1.55456
rhand -3.62027 -43.5599
rfingers 7.12502
rthumb 22.1186 -72.3147
lclavicle -1.21756e-014 3.27001e-014
lhumerus -41.27 -1.13547 83.3425
lradius 14.714
lwrist 5.74326
lhand -8.33286 -6.84061
lfingers 7.12502
lthumb 17.5885 22.3838
rfemur 11.7426 3.50114 29.8602
rtibia 6.86129
rfoot -22.1135 -7.08104
rtoes -2.03848
lfemur -20.4005 0.10317 -5.87841
ltibia -0.507214
lfoot -18.8634 5.27477
ltoes 26.7046
673
root 12.3364 17.7241 23.1936 2.57496 1.86793 -6.54375
lowerback -5.31549 2.25598 8.19493
upperback 1.54397 2.38296 0.977754
thorax 4.90438 1.40644 -3.33936
lowerneck 5.04073 -3.56456 -0.737711
upperneck 12.1193 -4.37901 -4.32763
head 2.92147 -2.31427 -1.3112
rclavicle -2.70844e-014 1.2424e-014
rhumerus -26.7681 3.549 -72.9415
rradius 49.1066
rwrist -1.6168
rhand -3.78196 -43.4349
rfingers 7.12502
rthumb 21.9633 -72.208
lclavicle -2.70844e-014 1.2424e-014
lhumerus -41.7007 -1.24519 83.5052
lradius 14.6446
lwrist 5.59706
lhand -7.76107 -6.78638
lfingers 7.12502
lthumb 18.1387 22.3879
rfemur 12.0083 3.48658 29.8446
rtibia 7.39701
rfoot -22.3133 -6.55793
rtoes -2.20894
lfemur -20.4372 -0.0265436 -5.81918
ltibia -0.443483
lfoot -18.1952 4.47192
ltoes 26.5804
674
root 12.3575 17.7037 23.3555 2.58741 1.63974 -6.65081
lowerback -5.37095 2.24304 8.13823
upperback 1.53807 2.36527 0.960967
thorax 4.92553 1.39682 -3.32548
lowerneck 4.94106 -3.51094 -0.680438
upperneck 12.0712 -4.2849 -4.58113
head 2.91844 -2.27306 -1.40376
rclavicle -9.19379e-015 3.1408e-014
rhumerus -26.6694 3.36844 -72.9176
rradius 49.018
rwrist -1.66913
rhand -3.91699 -43.3268
rfingers 7.12502
rthumb 21.8337 -72.1151
lclavicle -9.19379e-015 3.1408e-014
lhumerus -42.1041 -1.36272 83.6833
lradius 14.551
lwrist 5.36047
lhand -7.20728 -6.75416
lfingers 7.12502
lthumb 18.6715 22.3697
rfemur 12.2656 3.50658 29.8482
rtibia 7.97783
rfoot -22.4853 -6.08372
rtoes -2.46162
lfemur -20.5632 0.29719 -5.88195
ltibia 0.13601
lfoot -16.9816 3.44183
ltoes 26.3743
675
root 12.3781 17.6839 23.5183 2.58477 1.3964 -6.7707
lowerback -5.41216 2.2457 8.09009
upperback 1.52669 2.36938 0.947116
thorax 4.93572 1.39767 -3.31158
lowerneck 4.84556 -3.46967 -0.638775
upperneck 12.0514 -4.2079 -4.81984
head 2.92506 -2.24095 -1.48984
rclavicle -2.00027e-015 1.59028e-014
rhumerus -26.6174 3.15929 -72.8905
rradius 48.8706
rwrist -1.70535
rhand -3.9733 -43.2572
rfingers 7.12502
rthumb 21.7796 -72.0518
lclavicle -2.00027e-015 1.59028e-014
lhumerus -42.4817 -1.47061 83.8596
lradius 14.4354
lwrist 5.02663
lhand -6.66499 -6.76122
lfingers 7.12502
lthumb 19.193 22.3117
rfemur 12.5106 3.57356 29.878
rtibia 8.61319
rfoot -22.6132 -5.66379
rtoes -2.82641
lfemur -20.6944 0.719415 -5.94079
ltibia 0.991323
lfoot -15.4591 2.51019
ltoes 26.1423
676
root 12.3985 17.6653 23.6826 2.57326 1.12636 -6.91908
lowerback -5.45416 2.26057 8.0661
upperback 1.5129 2.38789 0.93783
thorax 4.94652 1.4062 -3.30481
lowerneck 4.75204 -3.43703 -0.579742
upperneck 12.0496 -4.14008 -5.07471
head 2.93696 -2.21341 -1.58489
rclavicle 1.08213e-014 -1.59028e-015
rhumerus -26.5985 2.93018 -72.8811
rradius 48.659
rwrist -1.71262
rhand -3.93575 -43.2315
rfingers 7.12502
rthumb 21.8157 -72.0219
lclavicle 1.08213e-014 -1.59028e-015
lhumerus -42.8305 -1.5942 84.0448
lradius 14.3154
lwrist 4.6754
lhand -6.12856 -6.77627
lfingers 7.12502
lthumb 19.7088 22.2446
rfemur 12.734 3.67871 29.9473
rtibia 9.309
rfoot -22.6644 -5.27875
rtoes -3.26122
lfemur -20.7416 0.927906 -5.87416
ltibia 1.83569
lfoot -13.8864 1.96778
ltoes 26.7112
677
root 12.4193 17.6485 23.8485 2.56917 0.788649 -7.07936
lowerback -5.50483 2.29368 8.04829
upperback 1.49065 2.42992 0.926618
thorax 4.95655 1.4263 -3.30079
lowerneck 4.67163 -3.40448 -0.497876
upperneck 12.0563 -4.07082 -5.34203
head 2.94916 -2.18464 -1.68814
rclavicle 1.04486e-014 -4.59193e-014
rhumerus -26.6119 2.69491 -72.9126
rradius 48.3784
rwrist -1.68508
rhand -3.83921 -43.2572
rfingers 7.12502
rthumb 21.9084 -72.0367
lclavicle 1.04486e-014 -4.59193e-014
lhumerus -43.1606 -1.78168 84.2718
lradius 14.2149
lwrist 4.40781
lhand -5.6155 -6.76402
lfingers 7.12502
lthumb 20.2019 22.2055
rfemur 12.907 3.83988 30.0271
rtibia 10.0814
rfoot -22.605 -4.92611
rtoes -3.86365
lfemur -20.6411 0.819134 -5.65652
ltibia 2.44246
lfoot -12.326 2.02241
ltoes 28.4159
678
root 12.4406 17.6348 24.0164 2.55913 0.420222 -7.21923
lowerback -5.55895 2.33016 8.01019
upperback 1.46273 2.47847 0.903538
thorax 4.96283 1.44893 -3.29715
lowerneck 4.62577 -3.36067 -0.417152
upperneck 12.0674 -3.98949 -5.58004
head 2.95791 -2.14884 -1.7811
rclavicle 2.44754e-015 1.09332e-014
rhumerus -26.6657 2.44412 -72.9991
rradius 48.0293
rwrist -1.61265
rhand -3.72293 -43.331
rfingers 7.12502
rthumb 22.02 -72.0974
lclavicle 2.44754e-015 1.09332e-014
lhumerus -43.4765 -2.0243 84.5315
lradius 14.14
lwrist 4.23289
lhand -5.11689 -6.70515
lfingers 7.12502
lthumb 20.6811 22.213
rfemur 13.0507 4.01309 30.0787
rtibia 10.9317
rfoot -22.4333 -4.59643
rtoes -4.55259
lfemur -20.3683 0.430575 -5.35591
ltibia 2.7231
lfoot -10.8421 2.72909
ltoes 31.5699
679
root 12.4624 17.6253 24.1854 2.54203 0.00772911 -7.27912
lowerback -5.60103 2.37235 7.89512
upperback 1.42739 2.54332 0.850471
thorax 4.95384 1.47721 -3.28084
lowerneck 4.65663 -3.29691 -0.333329
upperneck 12.0484 -3.88363 -5.82269
head 2.94358 -2.09934 -1.87346
rclavicle -6.68413e-015 -8.74653e-015
rhumerus -26.7625 2.15625 -73.1475
rradius 47.6121
rwrist -1.49213
rhand -3.60443 -43.4307
rfingers 7.12502
rthumb 22.1338 -72.1838
lclavicle -6.68413e-015 -8.74653e-015
lhumerus -43.7608 -2.26227 84.7742
lradius 14.0585
lwrist 4.07223
lhand -4.61129 -6.5984
lfingers 7.12502
lthumb 21.1668 22.2661
rfemur 13.1627 4.21426 30.0283
rtibia 11.8531
rfoot -22.1445 -4.27422
rtoes -5.103
lfemur -19.9394 -0.102264 -5.08427
ltibia 2.72416
lfoot -9.54873 4.16568
ltoes 34.9728
680
root 12.4841 17.6208 24.3548 2.51292 -0.457804 -7.2083
lowerback -5.61966 2.42419 7.65406
upperback 1.38604 2.63509 0.75273
thorax 4.92382 1.51515 -3.23912
lowerneck 4.77114 -3.20869 -0.262119
upperneck 11.9978 -3.74924 -6.0523
head 2.90522 -2.03397 -1.95649
rclavicle 3.29983e-014 -1.43125e-014
rhumerus -26.9063 1.83097 -73.3489
rradius 47.1323
rwrist -1.34761
rhand -3.5182 -43.5417
rfingers 7.12502
rthumb 22.2166 -72.2849
lclavicle 3.29983e-014 -1.43125e-014
lhumerus -43.9922 -2.46183 84.9691
lradius 13.9441
lwrist 3.86599
lhand -4.09435 -6.43725
lfingers 7.12502
lthumb 21.6634 22.3708
rfemur 13.2372 4.42116 29.8022
rtibia 12.852
rfoot -21.7393 -3.95473
rtoes -5.57028
lfemur -19.3881 -0.593166 -4.9561
ltibia 2.58079
lfoot -8.56134 6.14422
ltoes 38.1895
681
root 12.5055 17.6221 24.5245 2.46483 -0.974421 -6.99594
lowerback -5.61946 2.49456 7.2839
upperback 1.34732 2.76515 0.601124
thorax 4.88566 1.56921 -3.1781
lowerneck 4.9354 -3.10804 -0.196785
upperneck 11.9279 -3.60165 -6.26439
head 2.85279 -1.96045 -2.03128
rclavicle 1.59773e-014 -2.78299e-015
rhumerus -27.1035 1.45053 -73.5871
rradius 46.604
rwrist -1.19691
rhand -3.46964 -43.6636
rfingers 7.12502
rthumb 22.2632 -72.4012
lclavicle 1.59773e-014 -2.78299e-015
lhumerus -44.1584 -2.67378 85.1331
lradius 13.8065
lwrist 3.62534
lhand -3.58252 -6.22407
lfingers 7.12502
lthumb 22.1548 22.5265
rfemur 13.2727 4.61567 29.3781
rtibia 13.9327
rfoot -21.2158 -3.62695
rtoes -5.87106
lfemur -18.7544 -0.853101 -5.03667
ltibia 2.44504
lfoot -7.86727 8.38801
ltoes 40.8006
682
root 12.5264 17.6297 24.6948 2.39168 -1.54483 -6.62986
lowerback -5.60472 2.59079 6.78242
upperback 1.31585 2.94303 0.384697
thorax 4.84741 1.6447 -3.10649
lowerneck 5.10803 -3.01002 -0.126531
upperneck 11.8597 -3.45929 -6.4566
head 2.80006 -1.88834 -2.10066
rclavicle 7.7526e-015 1.55052e-014
rhumerus -27.3529 0.983688 -73.8512
rradius 46.0282
rwrist -1.02968
rhand -3.42097 -43.7851
rfingers 7.12502
rthumb 22.3099 -72.5171
lclavicle 7.7526e-015 1.55052e-014
lhumerus -44.2546 -2.94364 85.2767
lradius 13.6518
lwrist 3.35385
lhand -3.11032 -6.00756
lfingers 7.12502
lthumb 22.6081 22.6885
rfemur 13.2644 4.77531 28.7256
rtibia 15.1033
rfoot -20.5582 -3.27474
rtoes -5.93597
lfemur -18.0763 -0.728509 -5.38016
ltibia 2.43397
lfoot -7.26987 10.4144
ltoes 42.5336
